<?xml version="1.0" encoding="UTF-8"?>
<svg width="500mm" height="150mm" version="1.1" viewBox="0 0 500 150" xmlns="http://www.w3.org/2000/svg" xmlns:cc="http://creativecommons.org/ns#" xmlns:dc="http://purl.org/dc/elements/1.1/" xmlns:rdf="http://www.w3.org/1999/02/22-rdf-syntax-ns#">
 <metadata>
  <rdf:RDF>
   <cc:Work rdf:about="">
    <dc:format>image/svg+xml</dc:format>
    <dc:type rdf:resource="http://purl.org/dc/dcmitype/StillImage"/>
    <dc:title/>
   </cc:Work>
  </rdf:RDF>
 </metadata>
 <g transform="matrix(.70729 0 0 1 239.68 19.049)">
  <g stroke-width=".26458">
   <path d="m-309.01 73.247-1.5696-0.03477m0-69.238v69.238m0 0-11.934 8.7828m13.504-77.986v69.238m0 0-11.934 8.7828" fill="none" stroke="#000" stroke-linecap="round"/>
   <path d="m-309.01 73.247-1.5696-0.03477v-69.238z" fill="#bdbdbd" fill-opacity=".4"/>
   <path d="m-213.12 75.371-65.279-1.4463m0-69.238v69.238m0 0-11.934 8.7828" fill="none" stroke="#000" stroke-linecap="round"/>
   <path d="m-309.01 4.009v69.238l-1.5696-69.272z" fill="#bdbdbd" fill-opacity=".4"/>
   <path d="m-309.01 4.009-1.5696-0.034777m0 0-11.934 8.7828m13.504-8.748-11.934 8.7828" fill="none" stroke="#000" stroke-linecap="round"/>
   <path d="m-213.12 75.371-65.279-1.4463v-69.238z" fill="#bdbdbd" fill-opacity=".4"/>
   <path d="m-213.12 6.1335-65.279-1.4463m0 0-11.934 8.7828m-20.567 32.093-1.5696-0.03478m0-4.7401v4.7401m0 0-0.81704 0.60128m1.6018-5.324v4.7401m0 0-0.81704 0.60128m0.81704-0.60128 30.984-1.3739m-30.199-3.3488v4.7401m0 0-0.81704 0.60128" fill="none" stroke="#000" stroke-linecap="round"/>
   <path d="m-310.9 45.563-1.5696-0.03478v-4.7401zm0-4.7401v4.7401l-1.5696-4.7749z" fill="#a00f00" fill-opacity=".4"/>
   <path d="m-310.9 40.823-1.5696-0.03478m0 0-0.81704 0.60128m1.6018-0.58389-0.81704 0.60128m0.81704-0.60128 30.984 3.3662m-30.199-3.3488-0.81704 0.60128" fill="none" stroke="#000" stroke-linecap="round"/>
  </g>
  <g fill-opacity=".4" stroke-width=".26458">
   <path d="m-313.29 46.13 0.81704-0.60128 1.5696 0.03478z" fill="#a00f00"/>
   <path d="m-311.69 40.806v4.7401l-0.81704 0.60128z" fill="#c41111"/>
   <path d="m-312.47 40.788v4.7401l-0.81704-4.1388zm0.75258 5.3762 0.81704-0.60128v-4.7401z" fill="#a00f00"/>
  </g>
  <path d="m-213.12 6.1335v69.238m0 0-11.934 8.7828" fill="none" stroke="#000" stroke-linecap="round" stroke-width=".26458"/>
  <g fill-opacity=".4" stroke-width=".26458">
   <path d="m-311.72 41.424 0.81704-0.60128-1.5696-0.03478z" fill="#a00f00"/>
   <path d="m-311.69 45.546v-4.7401l30.984 3.3662z" fill="#c41111"/>
   <path d="m-311.72 46.164-1.5696-0.03478 2.3867-0.5665zm-0.75258-0.63606-0.81704 0.60128v-4.7401z" fill="#a00f00"/>
   <path d="m-311.69 40.806-0.81704 5.3414v-4.7401z" fill="#c41111"/>
   <path d="m-311.72 41.424v4.7401l0.81704-5.3414zm-1.5696-0.03478 1.5696 0.03478-0.75258-0.63606z" fill="#a00f00"/>
   <path d="m-312.51 46.147 0.81704-0.60128 30.984-1.3739z" fill="#c41111"/>
   <path d="m-213.12 6.1335v69.238l-65.279-70.684z" fill="#bdbdbd"/>
  </g>
  <g stroke-width=".26458">
   <path d="m-313.29 41.39v4.7401m0 0 1.5696 0.03478" fill="none" stroke="#000" stroke-linecap="round"/>
   <path d="m-311.69 40.806-0.81704 0.60128 31.801 2.7649z" fill="#c41111" fill-opacity=".4"/>
   <path d="m-312.51 46.147v-4.7401m0 4.7401 31.801-1.9752m-31.016-2.7475v4.7401" fill="none" stroke="#000" stroke-linecap="round"/>
   <path d="m-313.29 46.13 1.5696 0.03478v-4.7401zm0-4.7401v4.7401l1.5696-4.7053z" fill="#a00f00" fill-opacity=".4"/>
   <path d="m-313.29 41.39 1.5696 0.03478m-0.78481-0.01739 31.801 2.7649" fill="none" stroke="#000" stroke-linecap="round"/>
   <path d="m-312.51 41.407v4.7401l31.801-1.9752z" fill="#c41111" fill-opacity=".4"/>
   <path d="m-322.51 81.995 11.934-8.7828 1.5696 0.03477z" fill="#bdbdbd" fill-opacity=".4"/>
   <path d="m-213.12 6.1335-11.934 8.7828" fill="none" stroke="#000" stroke-linecap="round"/>
   <path d="m-320.94 82.029 11.934-8.7828v-69.238z" fill="#bdbdbd" fill-opacity=".4"/>
   <path d="m-117.4 72.731-65.279-1.4463m0-58.286v58.286m0 0-10.047 7.3935" fill="none" stroke="#000" stroke-linecap="round"/>
   <path d="m-310.58 3.9743v69.238l-11.934-60.455zm-10.365 8.8175 11.934-8.7828-1.5696-0.034777zm30.608 69.916 11.934-8.7828 65.279 1.4463zm11.934-78.02v69.238l-11.934-60.455zm161.01 68.044-65.279-1.4463v-58.286z" fill="#bdbdbd" fill-opacity=".4"/>
   <path d="m-117.4 14.446-65.279-1.4463m0 0-10.047 7.3935m75.325-5.9472v58.286m0 0-10.047 7.3935" fill="none" stroke="#000" stroke-linecap="round"/>
   <path d="m-117.4 14.446v58.286l-65.279-59.732zm-107.66 69.708 11.934-8.7828v-69.238zm0-69.238 11.934-8.7828-65.279-1.4463z" fill="#bdbdbd" fill-opacity=".4"/>
   <path d="m-119.32 27.3-65.279-1.4463m0-4.7401v4.7401m0 0-0.81704 0.60128" fill="none" stroke="#000" stroke-linecap="round"/>
   <path d="m-320.94 82.029-1.5696-0.03478 13.504-8.748z" fill="#bdbdbd" fill-opacity=".4"/>
   <path d="m-220 73.08-65.279-1.4463m0-4.7401v4.7401m0 0-0.81704 0.60128m166.78-49.675-65.279-1.4463m0 0-0.81704 0.60128m-34.587 46.625-65.279-1.4463m0 0-0.81704 0.60128m168.7-53.049-10.047 7.3935" fill="none" stroke="#000" stroke-linecap="round"/>
  </g>
  <g fill-opacity=".4" stroke-width=".26458">
   <path d="m-184.6 21.114v4.7401l-0.81704-4.1388zm-100.68 45.78v4.7401l-0.81704-4.1388z" fill="#a00f00"/>
   <path d="m-310.58 73.212-11.934 8.7828v-69.238z" fill="#bdbdbd"/>
   <path d="m-184.6 25.854-0.81704 0.60128v-4.7401zm-100.68 45.78-0.81704 0.60128v-4.7401zm165.96-44.334-65.279-1.4463v-4.7401zm-100.68 45.78-65.279-1.4463v-4.7401z" fill="#a00f00"/>
  </g>
  <g stroke-width=".26458">
   <path d="m-185.42 21.715v4.7401m0 0 65.279 1.4463m-165.96 39.594v4.7401m0 0 65.279 1.4463m35.404-51.966 65.279 1.4463" fill="none" stroke="#000" stroke-linecap="round"/>
   <path d="m-185.42 26.455 0.81704-0.60128 65.279 1.4463z" fill="#a00f00" fill-opacity=".4"/>
   <path d="m-21.669 70.092-65.279-1.4463m0-47.334v47.334m0 0-8.1588 6.0043m-190.99-7.1548 65.279 1.4463" fill="none" stroke="#000" stroke-linecap="round"/>
  </g>
  <g fill-opacity=".4" stroke-width=".26458">
   <path d="m-286.1 72.235 0.81704-0.60128 65.279 1.4463z" fill="#a00f00"/>
   <path d="m-192.72 78.679 10.047-7.3935 65.279 1.4463zm-128.22-65.887v69.238l11.934-78.02zm138.27 0.2078v58.286l-10.047-50.892z" fill="#bdbdbd"/>
   <path d="m-185.42 21.715 65.279 1.4463-64.462-2.0476zm66.096 0.84502v4.7401l-65.279-6.1864zm-166.78 44.935 65.279 1.4463-64.462-2.0476zm66.096 0.84502v4.7401l-65.279-6.1864z" fill="#a00f00"/>
   <path d="m-278.4 73.925-11.934 8.7828v-69.238z" fill="#bdbdbd"/>
   <path d="m-185.42 21.715v4.7401l65.279-3.2938z" fill="#a00f00"/>
   <path d="m-322.51 12.757 1.5696 0.03478 10.365-8.8175z" fill="#bdbdbd"/>
   <path d="m-286.1 67.495v4.7401l65.279-3.2938zm165.96-44.334 0.81704-0.60128-65.279-1.4463zm-100.68 45.78 0.81704-0.60128-65.279-1.4463zm100.68-41.04-65.279-1.4463 66.096 0.84502zm-100.68 45.78-65.279-1.4463 66.096 0.84502z" fill="#a00f00"/>
  </g>
  <g stroke-width=".26458">
   <path d="m-119.32 22.56v4.7401m0 0-0.81704 0.60128m0.81704-5.3414v4.7401m0 0-0.81704 0.60128m0.81704-0.60128 30.478 2.7702" fill="none" stroke="#000" stroke-linecap="round"/>
   <path d="m-21.669 70.092-65.279-1.4463v-47.334z" fill="#bdbdbd" fill-opacity=".4"/>
   <path d="m-220 68.34v4.7401m0 0-0.81704 0.60128m0.81704-5.3414v4.7401m0 0-0.81704 0.60128m0.81704-0.60128 31.193-5.4655m167.14-44.856-65.279-1.4463m0 0-8.1588 6.0043m-24.214-4.7563-0.81704 0.60128m0.81704-0.60128-0.81704 0.60128m0.81704-0.60128 30.478 7.5103m-131.16 38.27-0.81704 0.60128m0.81704-0.60128-0.81704 0.60128m0.81704-0.60128 31.193-0.72544" fill="none" stroke="#000" stroke-linecap="round"/>
  </g>
  <g fill-opacity=".4" stroke-width=".26458">
   <path d="m-185.42 26.455 65.279 1.4463v-4.7401zm-100.68 45.78 65.279 1.4463v-4.7401zm165.96-44.334 0.81704-0.60128v-4.7401z" fill="#a00f00"/>
   <path d="m-119.32 22.56v4.7401l-0.81704 0.60128z" fill="#c41111"/>
   <path d="m-225.06 84.154-65.279-1.4463 77.213-7.3365z" fill="#bdbdbd"/>
   <path d="m-220.82 73.682 0.81704-0.60128v-4.7401z" fill="#a00f00"/>
   <path d="m-220 68.34v4.7401l-0.81704 0.60128zm0 4.7401v-4.7401l31.193-0.72544z" fill="#c41111"/>
   <path d="m-120.14 23.161v4.7401l0.81704-5.3414z" fill="#a00f00"/>
   <path d="m-119.32 22.56-0.81704 5.3414v-4.7401zm0 4.7401v-4.7401l30.478 7.5103z" fill="#c41111"/>
   <path d="m-220.82 68.941v4.7401l0.81704-5.3414z" fill="#a00f00"/>
   <path d="m-220 68.34-0.81704 5.3414v-4.7401zm-0.81704 5.3414 0.81704-0.60128 31.193-5.4655z" fill="#c41111"/>
   <path d="m-127.44 80.125 10.047-7.3935v-58.286z" fill="#bdbdbd"/>
  </g>
  <g stroke-width=".26458">
   <path d="m-120.14 23.161v4.7401m0 0v-4.7401m0 4.7401 31.295 2.169" fill="none" stroke="#000" stroke-linecap="round"/>
   <path d="m-220 68.34-0.81704 0.60128 32.01-1.3267zm99.866-40.439 0.81704-0.60128 30.478 2.7702z" fill="#c41111" fill-opacity=".4"/>
   <path d="m-220.82 68.941v4.7401m0 0v-4.7401m0 4.7401 32.01-6.0668m68.673-44.453 31.295 6.9091" fill="none" stroke="#000" stroke-linecap="round"/>
   <path d="m-119.32 22.56-0.81704 0.60128 31.295 6.9091z" fill="#c41111" fill-opacity=".4"/>
   <path d="m-21.669 22.758v47.334m0 0-8.1588 6.0043m-190.99-7.1548 32.01-1.3267" fill="none" stroke="#000" stroke-linecap="round"/>
  </g>
  <g fill-opacity=".4" stroke-width=".26458">
   <path d="m-127.44 21.839 10.047-7.3935-65.279-1.4463zm105.77 0.91892v47.334l-65.279-48.78z" fill="#bdbdbd"/>
   <path d="m-220.82 68.941v4.7401l32.01-6.0668zm100.68-45.78v4.7401l31.295 2.169z" fill="#c41111"/>
   <path d="m-290.34 13.47 65.279 1.4463-53.345-10.229zm65.279 1.4463v69.238l11.934-78.02z" fill="#bdbdbd"/>
  </g>
  <g stroke-width=".26458">
   <path d="m-322.51 12.757v69.238m0 0 1.5696 0.03478m299.28-59.271-8.1588 6.0043m-291.12-15.971v69.238" fill="none" stroke="#000" stroke-linecap="round"/>
   <path d="m-182.67 71.285-10.047 7.3935v-58.286zm87.569 3.3647 8.1588-6.0043 65.279 1.4463zm8.1588-53.338v47.334l-8.1588-41.329zm-235.57 60.683 1.5696 0.03478v-69.238z" fill="#bdbdbd" fill-opacity=".4"/>
   <path d="m-290.34 13.47v69.238m0 0 65.279 1.4463" fill="none" stroke="#000" stroke-linecap="round"/>
   <path d="m-127.44 80.125-65.279-1.4463 75.325-5.9472zm-195.07-67.368v69.238l1.5696-69.203z" fill="#bdbdbd" fill-opacity=".4"/>
   <path d="m-322.51 12.757 1.5696 0.03478" fill="none" stroke="#000" stroke-linecap="round"/>
   <path d="m-192.72 20.393 65.279 1.4463-55.232-8.8398zm162.89 55.703 8.1588-6.0043v-47.334zm0-47.334 8.1588-6.0043-65.279-1.4463z" fill="#bdbdbd" fill-opacity=".4"/>
   <path d="m-290.34 13.47 65.279 1.4463" fill="none" stroke="#000" stroke-linecap="round"/>
   <path d="m-127.44 21.839v58.286l10.047-65.679zm-162.89-8.3695v69.238l65.279-67.791zm203.39 55.176-8.1588 6.0043v-47.334zm-203.39 14.062 65.279 1.4463v-69.238z" fill="#bdbdbd" fill-opacity=".4"/>
   <path d="m22.908 88.122-10.88-0.24105m0-76.664v76.664m0 0-1.8878 1.3893m-235.2-74.354v69.238m32.336-63.761v58.286m0 0 65.279 1.4463m150.35-68.667v76.664m0 0-1.8878 1.3893" fill="none" stroke="#000" stroke-linecap="round"/>
   <path d="m22.908 88.122-10.88-0.24105v-76.664zm-12.768 1.1482 1.8878-1.3893 10.88 0.24105zm-39.968-13.174-65.279-1.4463 73.438-4.558z" fill="#bdbdbd" fill-opacity=".4"/>
   <path d="m-18.738 49.583 17.789 0.39413" fill="none" stroke="#000" stroke-linecap="round"/>
   <path d="m-95.106 27.316 65.279 1.4463-57.12-7.4506zm118.01-15.858v76.664l-10.88-76.905zm-1.8878 78.053-10.88-0.24105 12.768-1.1482z" fill="#bdbdbd" fill-opacity=".4"/>
   <path d="m-192.72 20.393 65.279 1.4463" fill="none" stroke="#000" stroke-linecap="round"/>
   <path d="m21.02 89.511 1.8878-1.3893v-76.664z" fill="#bdbdbd" fill-opacity=".4"/>
   <path d="m-0.54916 46.487-0.8004 0.58904 10.864 3.133z"/>
   <path d="m-192.72 20.393v58.286l65.279-56.839z" fill="#bdbdbd" fill-opacity=".4"/>
   <path d="m22.908 11.458-10.88-0.24105m0 0-1.8878 1.3893" fill="none" stroke="#000" stroke-linecap="round"/>
   <path d="m-1.5969 51.674 0.64754 2.2529 10.464-3.7182z"/>
   <path d="m12.028 11.217v76.664l-1.8878-75.274zm0 76.664-1.8878 1.3893v-76.664z" fill="#bdbdbd" fill-opacity=".4"/>
   <path d="m10.141 12.606v76.664m0 0 10.88 0.24105" fill="none" stroke="#000" stroke-linecap="round"/>
   <path d="m-1.3496 47.076-0.24734 4.5984 11.112-1.4653z"/>
   <path d="m-192.72 78.679 65.279 1.4463v-58.286z" fill="#bdbdbd" fill-opacity=".4"/>
   <path d="m22.908 11.458-1.8878 1.3893m-148.46 8.9923v58.286m148.46-67.278v76.664" fill="none" stroke="#000" stroke-linecap="round"/>
   <path d="m-29.827 28.763v47.334l8.1588-53.338z" fill="#bdbdbd" fill-opacity=".4"/>
   <path d="m-95.106 27.316v47.334m0 0 65.279 1.4463" fill="none" stroke="#000" stroke-linecap="round"/>
   <path d="m21.02 12.847 1.8878-1.3893-10.88-0.24105zm-10.88 76.423 10.88 0.24105v-76.664zm10.88-76.423v76.664l1.8878-78.053zm-10.88-0.24105 10.88 0.24105-8.992-1.6303zm0 0v76.664l10.88-76.423z" fill="#bdbdbd" fill-opacity=".4"/>
   <path d="m-95.106 27.316 65.279 1.4463m39.968-16.157 10.88 0.24105" fill="none" stroke="#000" stroke-linecap="round"/>
   <path d="m-95.106 27.316v47.334l65.279-45.887zm0 47.334 65.279 1.4463v-47.334z" fill="#bdbdbd" fill-opacity=".4"/>
   <path d="m-29.827 28.763v47.334" fill="none" stroke="#000" stroke-linecap="round"/>
  </g>
  <g transform="matrix(.26458 0 0 .26458 182.88 51.181)">
   <path d="m-213.84 75.157-248.79-3.441m0-179.05v179.05m0 0-20.467 21.703" fill="none" stroke="#000" stroke-linecap="round"/>
   <path d="m-213.84 75.157-248.79-3.441v-179.05z" fill="#bdbdbd" fill-opacity=".4"/>
   <path d="m156.96 98.456-248.79-3.441m0-220.48v220.48m0 0-25.203 26.724m-96.808-225.63-248.79-3.441m0 0-20.467 21.703m269.26-18.262v179.05m0 0-20.467 21.703" fill="none" stroke="#000" stroke-linecap="round"/>
   <path d="m-213.84-103.89v179.05l-248.79-182.49zm370.8 202.35-248.79-3.441v-220.48z" fill="#bdbdbd" fill-opacity=".4"/>
   <path d="m-216.01-72.237-248.79-3.441m0-17.93v17.93m0 0-2.0496 2.1733m994.62 195.26-248.79-3.441m0-261.9v261.9m0 0-29.939 31.746m-465.05-240.23-248.79-3.441m0 0-2.0496 2.1733" fill="none" stroke="#000" stroke-linecap="round"/>
   <path d="m-464.8-93.608v17.93l-2.0496-15.757z" fill="#a00f00" fill-opacity=".4"/>
   <path d="m156.96-122.02-248.79-3.441m0 0-25.203 26.724m274-23.283v220.48m0 0-25.203 26.724" fill="none" stroke="#000" stroke-linecap="round"/>
   <path d="m-216.01-72.237-248.79-3.441v-17.93zm-248.79-3.441-2.0496 2.1733v-17.93z" fill="#a00f00" fill-opacity=".4"/>
   <path d="m-213.84-103.89-20.467 21.703" fill="none" stroke="#000" stroke-linecap="round"/>
   <path d="m-466.85-73.504 2.0496-2.1733 248.79 3.441z" fill="#a00f00" fill-opacity=".4"/>
   <path d="m-466.85-91.435v17.93m0 0 248.79 3.441" fill="none" stroke="#000" stroke-linecap="round"/>
   <path d="m156.96-122.02v220.48l-248.79-223.92z" fill="#bdbdbd" fill-opacity=".4"/>
   <path d="m-466.85-91.435 248.79 3.441" fill="none" stroke="#000" stroke-linecap="round"/>
   <path d="m527.77 121.75-248.79-3.441v-261.9z" fill="#bdbdbd" fill-opacity=".4"/>
   <path d="m-216.01-90.167v17.93l-248.79-21.371zm-250.84-1.2676 248.79 3.441-246.74-5.6143zm248.79 3.441 2.0496-2.1733-248.79-3.441z" fill="#a00f00" fill-opacity=".4"/>
   <path d="m-216.01-90.167v17.93m0 0-2.0496 2.1733m2.0497-20.104v17.93m0 0-2.0496 2.1733m2.0496-2.1733 120.25-23.947m623.53-43.965v261.9m0 0-29.939 31.746" fill="none" stroke="#000" stroke-linecap="round"/>
   <path d="m-466.85-91.435v17.93l248.79-14.489z" fill="#a00f00" fill-opacity=".4"/>
   <path d="m-216.01-90.167-2.0496 2.1733m2.0497-2.1733-2.0496 2.1733m2.0496-2.1733 120.25-6.0168" fill="none" stroke="#000" stroke-linecap="round"/>
   <path d="m-218.06-70.063-248.79-3.441 250.84 1.2676z" fill="#a00f00" fill-opacity=".4"/>
   <path d="m-483.1 93.418 20.467-21.703 248.79 3.441z" fill="#bdbdbd" fill-opacity=".4"/>
   <path d="m527.77-140.15-248.79-3.441m0 0-29.939 31.746" fill="none" stroke="#000" stroke-linecap="round"/>
   <g fill-opacity=".4">
    <path d="m-216.01-72.237v-17.93l120.25-6.0168z" fill="#c41111"/>
    <path d="m-218.06-70.063 2.0496-2.1733v-17.93z" fill="#a00f00"/>
    <path d="m-216.01-90.167v17.93l-2.0496 2.1733z" fill="#c41111"/>
   </g>
   <path d="m156.96-122.02-25.203 26.724" fill="none" stroke="#000" stroke-linecap="round"/>
   <g fill-opacity=".4">
    <path d="m-462.63-107.33v179.05l-20.467-157.35z" fill="#bdbdbd"/>
    <path d="m-466.85-73.504 248.79 3.441v-17.93z" fill="#a00f00"/>
    <path d="m-218.06-70.063 2.0496-2.1733 120.25-23.947zm2.0496-20.104-2.0496 2.1733 122.3-8.1902z" fill="#c41111"/>
   </g>
   <path d="m-218.06-70.063 122.3-26.12m-122.3 8.1902 122.3-8.1902" fill="none" stroke="#000" stroke-linecap="round"/>
   <g fill-opacity=".4">
    <path d="m527.77-140.15v261.9l-248.79-265.34z" fill="#bdbdbd"/>
    <path d="m-218.06-87.994v17.93l2.0496-20.104z" fill="#a00f00"/>
    <path d="m-216.01-90.167-2.0496 20.104v-17.93z" fill="#c41111"/>
   </g>
   <path d="m650.4 123.45-5.9822-0.0827m0-261.9v261.9m0 0-29.939 31.746m35.921-293.57v261.9m0 0-29.939 31.746" fill="none" stroke="#000" stroke-linecap="round"/>
   <path d="m-218.06-87.994v17.93l122.3-26.12z" fill="#c41111" fill-opacity=".4"/>
   <path d="m-218.06-87.994v17.93m1e-5 -2e-6v-17.93" fill="none" stroke="#000" stroke-linecap="round"/>
   <path d="m650.4 123.45-5.9822-0.0827v-261.9zm-884.71-26.591 20.467-21.703v-179.05z" fill="#bdbdbd" fill-opacity=".4"/>
   <path d="m150.58-64.988-248.79-3.441m0-17.93v17.93m0 0-2.0497 2.1733m250.84-16.663-248.79-3.441m0 0-2.0497 2.1733m628.03-55.962-29.939 31.746" fill="none" stroke="#000" stroke-linecap="round"/>
   <g fill-opacity=".4">
    <path d="m-234.31-82.188 20.467-21.703-248.79-3.441zm884.71-56.264v261.9l-5.9822-261.99zm-767.43 260.19 25.203-26.724 248.79 3.441z" fill="#bdbdbd"/>
    <path d="m-98.211-86.36v17.93l-2.0497-15.757zm248.79 21.371-248.79-3.441v-17.93zm-248.79-3.441-2.0497 2.1733v-17.93z" fill="#a00f00"/>
    <path d="m-91.828-125.46v220.48l-25.203-193.75z" fill="#bdbdbd"/>
    <path d="m-100.26-66.256 2.0497-2.1733 248.79 3.441z" fill="#a00f00"/>
   </g>
   <path d="m650.4-138.45-5.9822-0.0827m0 0-29.939 31.746m35.921-31.663-29.939 31.746m-720.72 22.521v17.93m0 0 248.79 3.441m-248.79-21.371 248.79 3.441" fill="none" stroke="#000" stroke-linecap="round"/>
   <path d="m150.58-82.919v17.93l-248.79-21.371zm-250.84-1.2676 248.79 3.441-246.74-5.6143zm248.79 3.441 2.0496-2.1733-248.79-3.441z" fill="#a00f00" fill-opacity=".4"/>
   <path d="m150.58-82.919v17.93m0 0-2.0496 2.1733m2.0496-20.104v17.93m0 0-2.0496 2.1733m2.0496-2.1733 119.59-20.212" fill="none" stroke="#000" stroke-linecap="round"/>
   <path d="m-100.26-84.186v17.93l248.79-14.489z" fill="#a00f00" fill-opacity=".4"/>
   <path d="m150.58-82.919-2.0496 2.1733m2.0496-2.1733-2.0496 2.1733m2.0496-2.1733 119.59-2.2821" fill="none" stroke="#000" stroke-linecap="round"/>
   <g fill-opacity=".4">
    <path d="m148.53-62.815-248.79-3.441 250.84 1.2676z" fill="#a00f00"/>
    <path d="m-462.63 71.716-20.467 21.703v-179.05zm594.39 53.464 25.203-26.724v-220.48z" fill="#bdbdbd"/>
    <path d="m150.58-64.988v-17.93l119.59-2.2821z" fill="#c41111"/>
    <path d="m148.53-62.815 2.0496-2.1733v-17.93z" fill="#a00f00"/>
    <path d="m150.58-82.919v17.93l-2.0496 2.1733z" fill="#c41111"/>
    <path d="m-100.26-66.256 248.79 3.441v-17.93z" fill="#a00f00"/>
    <path d="m249.04 150.06 29.939-31.746 248.79 3.441z" fill="#bdbdbd"/>
    <path d="m148.53-62.815 2.0496-2.1733 119.59-20.212zm2.0496-20.104-2.0496 2.1733 121.64-4.4554z" fill="#c41111"/>
    <path d="m148.53-80.745v17.93l2.0496-20.104z" fill="#a00f00"/>
    <path d="m150.58-82.919-2.0496 20.104v-17.93z" fill="#c41111"/>
    <path d="m131.76-95.296 25.203-26.724-248.79-3.441zm-366.07 192.16-248.79-3.441 269.26-18.262z" fill="#bdbdbd"/>
   </g>
   <path d="m148.53-62.815 121.64-22.386m-121.64 4.4554 121.64-4.4554m-121.64 4.4554v17.93m0-2e-6v-17.93" fill="none" stroke="#000" stroke-linecap="round"/>
   <path d="m148.53-80.745v17.93l121.64-22.386z" fill="#c41111" fill-opacity=".4"/>
   <path d="m278.98-143.59v261.9l-29.939-230.16zm-762.07 57.96 248.79 3.441-228.32-25.144zm248.79 3.441v179.05l20.467-200.75zm732.14 235.69 29.939-31.746v-261.9zm116.65 1.6134 29.939-31.746 5.9822 0.0827z" fill="#bdbdbd" fill-opacity=".4"/>
   <path d="m513.34 65.209-248.79-3.441m0-17.93v17.93m0 0-2.0496 2.1733" fill="none" stroke="#000" stroke-linecap="round"/>
   <path d="m-91.828 95.015-25.203 26.724v-220.48z" fill="#bdbdbd" fill-opacity=".4"/>
   <path d="m513.34 47.279-248.79-3.441m0 0-2.0496 2.1733" fill="none" stroke="#000" stroke-linecap="round"/>
   <path d="m497.83-108.4 29.939-31.746-248.79-3.441zm122.63 263.6 29.939-31.746v-261.9z" fill="#bdbdbd" fill-opacity=".4"/>
   <path d="m-483.1-85.629v179.05m0 0 248.79 3.441" fill="none" stroke="#000" stroke-linecap="round"/>
   <g fill-opacity=".4">
    <path d="m264.55 43.838v17.93l-2.0496-15.757zm248.79 21.371-248.79-3.441v-17.93z" fill="#a00f00"/>
    <path d="m131.76 125.18-248.79-3.441 274-23.283z" fill="#bdbdbd"/>
    <path d="m264.55 61.768-2.0496 2.1733v-17.93z" fill="#a00f00"/>
    <path d="m644.42-138.54v261.9l-29.939-230.16z" fill="#bdbdbd"/>
    <path d="m262.5 63.942 2.0496-2.1733 248.79 3.441z" fill="#a00f00"/>
   </g>
   <path d="m262.5 46.011v17.93m0 0 248.79 3.441m-248.79-21.371 248.79 3.441" fill="none" stroke="#000" stroke-linecap="round"/>
   <g fill-opacity=".4">
    <path d="m513.34 47.279v17.93l-248.79-21.371zm-250.84-1.2676 248.79 3.441-246.74-5.6143z" fill="#a00f00"/>
    <path d="m620.46-106.71 29.939-31.746-5.9822-0.0827z" fill="#bdbdbd"/>
    <path d="m511.29 49.452 2.0496-2.1733-248.79-3.441z" fill="#a00f00"/>
   </g>
   <path d="m513.34 47.279v17.93m0 0-2.0496 2.1733m2.0497-20.104v17.93m0 0-2.0496 2.1733m2.0496-2.1733 118.62-6.2237m-1115.1-144.62 248.79 3.441" fill="none" stroke="#000" stroke-linecap="round"/>
   <path d="m262.5 46.011v17.93l248.79-14.489z" fill="#a00f00" fill-opacity=".4"/>
   <path d="m-117.03-98.737 248.79 3.441-223.59-30.165zm-366.07 13.107v179.05l248.79-175.61z" fill="#bdbdbd" fill-opacity=".4"/>
   <path d="m513.34 47.279-2.0496 2.1733m2.0497-2.1733-2.0496 2.1733m2.0496-2.1733 118.62 11.707" fill="none" stroke="#000" stroke-linecap="round"/>
   <path d="m511.29 67.383-248.79-3.441 250.84 1.2676z" fill="#a00f00" fill-opacity=".4"/>
   <path d="m-483.1 93.418 248.79 3.441v-179.05z" fill="#bdbdbd" fill-opacity=".4"/>
   <path d="m-234.31-82.188v179.05" fill="none" stroke="#000" stroke-linecap="round"/>
   <g fill-opacity=".4">
    <path d="m511.29 67.383 2.0496-2.1733v-17.93z" fill="#a00f00"/>
    <path d="m513.34 47.279v17.93l-2.0496 2.1733zm0 17.93v-17.93l118.62 11.707z" fill="#c41111"/>
    <path d="m262.5 63.942 248.79 3.441v-17.93z" fill="#a00f00"/>
    <path d="m131.76-95.296v220.48l25.203-247.2z" fill="#bdbdbd"/>
    <path d="m511.29 49.452v17.93l2.0496-20.104z" fill="#a00f00"/>
    <path d="m513.34 47.279-2.0496 20.104v-17.93zm-2.0496 20.104 2.0496-2.1733 118.62-6.2237zm2.0496-20.104-2.0496 2.1733 120.67 9.5332z" fill="#c41111"/>
   </g>
   <path d="m511.29 49.452v17.93m1e-5 2e-6v-17.93m0 17.93 120.67-8.397m-120.67-9.5332 120.67 9.5332" fill="none" stroke="#000" stroke-linecap="round"/>
   <path d="m511.29 49.452v17.93l120.67-8.397z" fill="#c41111" fill-opacity=".4"/>
   <path d="m278.98 118.31-29.939 31.746v-261.9zm218.85 35.187-248.79-3.441 278.73-28.305z" fill="#bdbdbd" fill-opacity=".4"/>
   <path d="m-117.03-98.737v220.48m0 0 248.79 3.441" fill="none" stroke="#000" stroke-linecap="round"/>
   <path d="m249.04-111.84 248.79 3.441-218.85-35.187zm371.43 267.04-5.9822-0.0827 35.921-31.663zm-122.63-263.6v261.9l29.939-293.65zm146.59 231.77-29.939 31.746v-261.9z" fill="#bdbdbd" fill-opacity=".4"/>
   <path d="m-117.03-98.737 248.79 3.441" fill="none" stroke="#000" stroke-linecap="round"/>
   <path d="m-117.03-98.737v220.48l248.79-217.03zm0 220.48 248.79 3.441v-220.48z" fill="#bdbdbd" fill-opacity=".4"/>
   <path d="m131.76-95.296v220.48" fill="none" stroke="#000" stroke-linecap="round"/>
   <path d="m620.46-106.71v261.9l29.939-293.65zm-5.9822-0.0827 5.9822 0.0827 23.957-31.828z" fill="#bdbdbd" fill-opacity=".4"/>
   <path d="m249.04-111.84v261.9m0 0 248.79 3.441m0-261.9v261.9" fill="none" stroke="#000" stroke-linecap="round"/>
   <path d="m249.04 150.06 248.79 3.441v-261.9zm0-261.9v261.9l248.79-258.46z" fill="#bdbdbd" fill-opacity=".4"/>
   <path d="m249.04-111.84 248.79 3.441m116.65 1.6134v261.9m0 0 5.9822 0.0827m0-261.9v261.9" fill="none" stroke="#000" stroke-linecap="round"/>
   <path d="m614.48 155.11 5.9822 0.0827v-261.9zm0-261.9v261.9l5.9822-261.82z" fill="#bdbdbd" fill-opacity=".4"/>
   <path d="m614.48-106.79 5.9822 0.0827" fill="none" stroke="#000" stroke-linecap="round"/>
  </g>
  <path d="m25.872 49.712 17.789 0.39413" fill="none" stroke="#000" stroke-linecap="round" stroke-width=".26458"/>
  <g stroke-width=".26458">
   <path d="m44.061 46.616-0.8004 0.58904 10.864 3.133z"/>
   <path d="m43.013 51.803 0.64754 2.2529 10.464-3.7182z"/>
   <path d="m43.261 47.205-0.24734 4.5984 11.112-1.4653z"/>
  </g>
 </g>
</svg>
