<?xml version="1.0" encoding="UTF-8"?>
<svg width="450mm" height="150mm" version="1.1" viewBox="0 0 450 150" xmlns="http://www.w3.org/2000/svg" xmlns:cc="http://creativecommons.org/ns#" xmlns:dc="http://purl.org/dc/elements/1.1/" xmlns:rdf="http://www.w3.org/1999/02/22-rdf-syntax-ns#">
 <metadata>
  <rdf:RDF>
   <cc:Work rdf:about="">
    <dc:format>image/svg+xml</dc:format>
    <dc:type rdf:resource="http://purl.org/dc/dcmitype/StillImage"/>
    <dc:title/>
   </cc:Work>
  </rdf:RDF>
 </metadata>
 <g transform="matrix(.32979 0 0 .44169 123.87 68.668)">
  <path d="m-319.22 65.897-4.4125-0.03052m0-149.95v149.95m0 0-11.784 13.218m16.197-163.14v149.95m0 0-11.784 13.218" fill="none" stroke="#000" stroke-linecap="round"/>
  <path d="m-319.22 65.897-4.4125-0.03052v-149.95zm0-149.95v149.95l-4.4125-149.98z" fill="#bdbdbd" fill-opacity=".4"/>
  <path d="m-319.22-84.056-4.4125-0.03052m0 0-11.784 13.218m16.197-13.188-11.784 13.218m218.97 124.24-122.34-0.84607m0-119.39v119.39m0 0-9.3826 10.524" fill="none" stroke="#000" stroke-linecap="round"/>
  <path d="m-112.04 53.405-122.34-0.84607v-119.39z" fill="#bdbdbd" fill-opacity=".4"/>
  <path d="m-112.04-65.988v119.39m0 0-9.3826 10.524m9.3826-129.92-122.34-0.84607m0 0-9.3826 10.524" fill="none" stroke="#000" stroke-linecap="round"/>
  <path d="m-112.04-65.988v119.39l-122.34-120.24z" fill="#bdbdbd" fill-opacity=".4"/>
  <path d="m-113.29 23.937-122.34-0.84607m0-13.227v13.227m0 0-1.0394 1.1659m123.38-13.546-122.34-0.84607m0 0-1.0394 1.1659m124.63-77.019-9.3826 10.524" fill="none" stroke="#000" stroke-linecap="round"/>
  <g fill-opacity=".4">
   <path d="m-113.29 23.937-122.34-0.84607v-13.227zm-122.34-14.073v13.227l-1.0394-12.061zm122.34 0.84607v13.227l-122.34-14.073zm-123.38 13.546 1.0394-1.1659 122.34 0.84607z" fill="#a00f00"/>
   <path d="m-335.42 79.085 11.784-13.218 4.4125 0.03052z" fill="#bdbdbd"/>
   <path d="m-235.63 23.091-1.0394 1.1659v-13.227z" fill="#a00f00"/>
  </g>
  <path d="m-113.29 10.711v13.227m0 0-1.0394 1.1659m1.0394-1.1659 86.909-10.749m-86.909-2.4772v13.227m0 0-1.0394 1.1659m1.0394-14.392-1.0394 1.1659m1.0394-1.1659 86.909 2.4772m-86.909-2.4772-1.0394 1.1659" fill="none" stroke="#000" stroke-linecap="round"/>
  <path d="m-114.33 11.877 1.0394-1.1659-122.34-0.84607z" fill="#a00f00" fill-opacity=".4"/>
  <path d="m-331 79.115 11.784-13.218v-149.95z" fill="#bdbdbd" fill-opacity=".4"/>
  <path d="m-323.3 36.74-4.4125-0.03052m0-13.227v13.227m0 0-1.0394 1.1659m3.2456-14.377v13.227m0 0-1.0394 1.1659m1.0394-1.1659 87.467-12.182m-85.26-1.0292v13.227m0 0-1.0394 1.1659" fill="none" stroke="#000" stroke-linecap="round"/>
  <path d="m-323.3 36.74-4.4125-0.03052v-13.227zm86.63-25.71 122.34 0.84607-121.3-2.012z" fill="#a00f00" fill-opacity=".4"/>
  <path d="m-236.67 11.031v13.227m0 0 122.34 0.84607" fill="none" stroke="#000" stroke-linecap="round"/>
  <path d="m-323.3 23.514v13.227l-4.4125-13.257z" fill="#a00f00" fill-opacity=".4"/>
  <path d="m-323.3 23.514-4.4125-0.03052m0 0-1.0394 1.1659m3.2456-1.1506-1.0394 1.1659m1.0394-1.1659 87.467 1.0445m-85.26-1.0292-1.0394 1.1659" fill="none" stroke="#000" stroke-linecap="round"/>
  <path d="m-113.29 10.711v13.227l-1.0394 1.1659z" fill="#c41111" fill-opacity=".4"/>
  <path d="m-114.33 25.103 1.0394-1.1659v-13.227z" fill="#a00f00" fill-opacity=".4"/>
  <path d="m-236.67 11.031 122.34 0.84607" fill="none" stroke="#000" stroke-linecap="round"/>
  <path d="m-114.33 25.103-122.34-0.84607 123.38-0.31982z" fill="#a00f00" fill-opacity=".4"/>
  <path d="m127.82 39.753-152.92-1.0576m0-85.792v85.792m0 0-6.742 7.5624" fill="none" stroke="#000" stroke-linecap="round"/>
  <g fill-opacity=".4">
   <path d="m-323.63-84.087v149.95l-11.784-136.74z" fill="#bdbdbd"/>
   <path d="m-328.75 37.876 1.0394-1.1659 4.4125 0.03052zm92.082-26.845v13.227l122.34-12.38z" fill="#a00f00"/>
   <path d="m-325.51 23.499v13.227l-1.0394 1.1659z" fill="#c41111"/>
   <path d="m-324.34 37.906 1.0394-1.1659v-13.227zm-3.373-14.423v13.227l-1.0394-12.061zm3.373 1.1964 1.0394-1.1659-4.4125-0.03052z" fill="#a00f00"/>
   <path d="m-113.29 23.937v-13.227l86.909 2.4772zm-212.22 12.788v-13.227l87.467 1.0445zm212.22-26.014-1.0394 14.392v-13.227z" fill="#c41111"/>
   <path d="m-114.33 11.877v13.227l1.0394-14.392zm-122.34 12.38 122.34 0.84607v-13.227z" fill="#a00f00"/>
   <path d="m-331-70.838 11.784-13.218-4.4125-0.03052z" fill="#bdbdbd"/>
   <path d="m-324.34 37.906-4.4125-0.03052 5.4519-1.1354zm-3.373-1.1964-1.0394 1.1659v-13.227z" fill="#a00f00"/>
   <path d="m-325.51 23.499-1.0394 14.392v-13.227zm211.18 1.6046 1.0394-1.1659 86.909-10.749z" fill="#c41111"/>
   <path d="m-324.34 24.68v13.227l1.0394-14.392zm-4.4125-0.03051 4.4125 0.03051-3.373-1.1964z" fill="#a00f00"/>
   <path d="m127.82 39.753-152.92-1.0576v-85.792z" fill="#bdbdbd"/>
  </g>
  <path d="m-114.33 11.877v13.227m0 0v-13.227m0 13.227 87.948-11.915" fill="none" stroke="#000" stroke-linecap="round"/>
  <path d="m-326.55 37.891 1.0394-1.1659 87.467-12.182zm213.25-27.18-1.0394 1.1659 87.948 1.3113z" fill="#c41111" fill-opacity=".4"/>
  <path d="m127.82-46.039-152.92-1.0576m0 0-6.742 7.5624" fill="none" stroke="#000" stroke-linecap="round"/>
  <path d="m-325.51 23.499-1.0394 1.1659 88.506-0.12139z" fill="#c41111" fill-opacity=".4"/>
  <path d="m-114.33 11.877 87.948 1.3113" fill="none" stroke="#000" stroke-linecap="round"/>
  <path d="m-243.76 63.084 9.3826-10.524 122.34 0.84607z" fill="#bdbdbd" fill-opacity=".4"/>
  <path d="m-328.75 24.649v13.227m0 0 4.4125 0.03052m-2.2062-0.01526v-13.227m0 13.227 88.506-13.348m-86.3 0.13664v13.227" fill="none" stroke="#000" stroke-linecap="round"/>
  <path d="m-328.75 37.876 4.4125 0.03052v-13.227zm0-13.227v13.227l4.4125-13.196z" fill="#a00f00" fill-opacity=".4"/>
  <path d="m-328.75 24.649 4.4125 0.03051m-2.2062-0.01526 88.506-0.12139" fill="none" stroke="#000" stroke-linecap="round"/>
  <path d="m-114.33 11.877v13.227l87.948-11.915zm-212.22 12.788v13.227l88.506-13.348z" fill="#c41111" fill-opacity=".4"/>
  <path d="m127.82-46.039v85.792m0 0-6.742 7.5624" fill="none" stroke="#000" stroke-linecap="round"/>
  <path d="m-234.38-66.834v119.39l-9.3826-108.87zm362.19 20.796v85.792l-152.92-86.85zm-249.24 109.97 9.3826-10.524v-119.39z" fill="#bdbdbd" fill-opacity=".4"/>
  <path d="m399.57 41.633-183.51-1.2691m0-85.792v85.792m0 0-6.742 7.5624m-81.507-93.965-6.742 7.5624" fill="none" stroke="#000" stroke-linecap="round"/>
  <path d="m-121.42-55.464 9.3826-10.524-122.34-0.84607z" fill="#bdbdbd" fill-opacity=".4"/>
  <path d="m126.42-26.736-152.92-1.0576m0-13.227v13.227m0 0-3.4647 3.8863m156.39-16.055-152.92-1.0576m0 0-3.4647 3.8863" fill="none" stroke="#000" stroke-linecap="round"/>
  <path d="m399.57 41.633-183.51-1.2691v-85.792z" fill="#bdbdbd" fill-opacity=".4"/>
  <path d="m399.57-44.159-183.51-1.2691m0 0-6.742 7.5624" fill="none" stroke="#000" stroke-linecap="round"/>
  <path d="m126.42-26.736-152.92-1.0576v-13.227zm0-13.227v13.227l-152.92-14.284z" fill="#a00f00" fill-opacity=".4"/>
  <path d="m-31.85 46.258 6.742-7.5624 152.92 1.0576z" fill="#bdbdbd" fill-opacity=".4"/>
  <path d="m399.57-44.159v85.792m0 0-6.742 7.5624" fill="none" stroke="#000" stroke-linecap="round"/>
  <path d="m399.57-44.159v85.792l-183.51-87.061zm-424.68-2.937v85.792l-6.742-78.23z" fill="#bdbdbd" fill-opacity=".4"/>
  <path d="m126.42-39.963v13.227m0 0-3.4647 3.8863m3.4647-3.8863 86.517-4.0598m-86.517-9.1667v13.227m0 0-3.4647 3.8863m3.4647-17.113-3.4647 3.8863m3.4647-3.8863-3.4647 3.8863m3.4647-3.8863 86.517 9.1667" fill="none" stroke="#000" stroke-linecap="round"/>
  <path d="m-26.5-41.02v13.227l-3.4647-9.3402z" fill="#a00f00" fill-opacity=".4"/>
  <path d="m701.92 43.724-214.09-1.4806m0-85.792v85.792m0 0-6.742 7.5624m-81.507-93.965-6.742 7.5624" fill="none" stroke="#000" stroke-linecap="round"/>
  <g fill-opacity=".4">
   <path d="m-331 79.115-4.4125-0.03052 16.197-13.188z" fill="#bdbdbd"/>
   <path d="m-29.965-23.908 3.4647-3.8863 152.92 1.0576z" fill="#a00f00"/>
   <path d="m121.07 47.316 6.742-7.5624v-85.792zm0-85.792 6.742-7.5624-152.92-1.0576zm-444.71 104.34-11.784 13.218v-149.95z" fill="#bdbdbd"/>
   <path d="m126.42-26.736v-13.227l86.517 9.1667z" fill="#c41111"/>
   <path d="m122.96-36.076 3.4647-3.8863-152.92-1.0576z" fill="#a00f00"/>
  </g>
  <path d="m701.92-42.068-214.09-1.4806m0 0-6.742 7.5624" fill="none" stroke="#000" stroke-linecap="round"/>
  <g fill-opacity=".4">
   <path d="m-234.38 52.559-9.3826 10.524v-119.39zm936.29-8.8355-214.09-1.4806v-85.792zm-1032.9-114.56v149.95l11.784-163.17z" fill="#bdbdbd"/>
   <path d="m126.42-39.963v13.227l-3.4647 3.8863z" fill="#c41111"/>
   <path d="m122.96-22.85 3.4647-3.8863v-13.227z" fill="#a00f00"/>
   <path d="m-121.42 63.93-122.34-0.84607 131.72-9.6782zm330.74-16.004 6.742-7.5624 183.51 1.2691zm6.742-93.354v85.792l-6.742-78.23z" fill="#bdbdbd"/>
   <path d="m-26.5-27.794-3.4647 3.8863v-13.227z" fill="#a00f00"/>
   <path d="m-335.42-70.869 4.4125 0.03052 7.3717-13.249zm1037.3 28.8v85.792l-214.09-87.273z" fill="#bdbdbd"/>
  </g>
  <path d="m701.92-42.068v85.792m0 0-6.742 7.5624" fill="none" stroke="#000" stroke-linecap="round"/>
  <path d="m-29.965-37.134 152.92 1.0576-149.46-4.9439z" fill="#a00f00" fill-opacity=".4"/>
  <path d="m-243.76-56.31 122.34 0.84607-112.96-11.37z" fill="#bdbdbd" fill-opacity=".4"/>
  <path d="m396.79-7.2111-183.51-1.2691m0-13.227v13.227m0 0-1.0394 1.1659" fill="none" stroke="#000" stroke-linecap="round"/>
  <path d="m-25.108 38.696-6.742 7.5624v-85.792z" fill="#bdbdbd" fill-opacity=".4"/>
  <path d="m396.79-20.438-183.51-1.2691m0 0-1.0394 1.1659" fill="none" stroke="#000" stroke-linecap="round"/>
  <g fill-opacity=".4">
   <path d="m122.96-22.85 3.4647-3.8863 86.517-4.0598zm3.4647-17.113-3.4647 3.8863 89.982 5.2804z" fill="#c41111"/>
   <path d="m122.96-22.85-152.92-1.0576 156.39-2.8287z" fill="#a00f00"/>
   <path d="m-121.42-55.464v119.39l9.3826-129.92z" fill="#bdbdbd"/>
   <path d="m396.79-7.2111-183.51-1.2691v-13.227zm-183.51-14.496v13.227l-1.0394-12.061z" fill="#a00f00"/>
   <path d="m392.83 49.195 6.742-7.5624v-85.792z" fill="#bdbdbd"/>
  </g>
  <path d="m701.92-42.068-6.742 7.5624" fill="none" stroke="#000" stroke-linecap="round"/>
  <path d="m392.83-36.597 6.742-7.5624-183.51-1.2691zm-271.76 83.913-152.92-1.0576 159.67-6.5048z" fill="#bdbdbd" fill-opacity=".4"/>
  <path d="m122.96-22.85 89.982-7.9461m-89.982-5.2804 89.982 5.2804" fill="none" stroke="#000" stroke-linecap="round"/>
  <path d="m126.42-39.963-3.4647 17.113v-13.227z" fill="#c41111" fill-opacity=".4"/>
  <path d="m122.96-36.076v13.227l3.4647-17.113z" fill="#a00f00" fill-opacity=".4"/>
  <path d="m-29.965-37.134v13.227m0 0 152.92 1.0576" fill="none" stroke="#000" stroke-linecap="round"/>
  <path d="m212.24-7.3143 1.0394-1.1659 183.51 1.2691zm1.0394-1.1659-1.0394 1.1659v-13.227z" fill="#a00f00" fill-opacity=".4"/>
  <path d="m-31.85-39.534 152.92 1.0576-146.18-8.62z" fill="#bdbdbd" fill-opacity=".4"/>
  <path d="m-29.965-37.134 152.92 1.0576" fill="none" stroke="#000" stroke-linecap="round"/>
  <path d="m396.79-20.438v13.227l-183.51-14.496z" fill="#a00f00" fill-opacity=".4"/>
  <path d="m212.24-20.541v13.227m0 0 183.51 1.2691" fill="none" stroke="#000" stroke-linecap="round"/>
  <path d="m-29.965-37.134v13.227l152.92-12.169z" fill="#a00f00" fill-opacity=".4"/>
  <path d="m396.79-20.438v13.227m0 0-1.0394 1.1659m1.0394-14.392v13.227m0 0-1.0394 1.1659m1.0394-1.1659 87.729-5.42m-272.28-7.9097 183.51 1.2691" fill="none" stroke="#000" stroke-linecap="round"/>
  <g fill-opacity=".4">
   <path d="m212.24-20.541 183.51 1.2691-182.47-2.435z" fill="#a00f00"/>
   <path d="m487.82-43.549v85.792l-6.742-78.23z" fill="#bdbdbd"/>
   <path d="m395.75-19.272 1.0394-1.1659-183.51-1.2691z" fill="#a00f00"/>
   <path d="m121.07-38.476v85.792l6.742-93.354zm360.01 88.282 6.742-7.5624 214.09 1.4806z" fill="#bdbdbd"/>
  </g>
  <path d="m396.79-20.438-1.0394 1.1659m1.0394-1.1659-1.0394 1.1659m1.0394-1.1659 87.729 7.8065" fill="none" stroke="#000" stroke-linecap="round"/>
  <g fill-opacity=".4">
   <path d="m122.96-36.076v13.227l89.982-7.9461z" fill="#c41111"/>
   <path d="m-29.965-23.908 152.92 1.0576v-13.227zm425.72 17.862-183.51-1.2691 184.55 0.10322zm-183.51-14.496v13.227l183.51-11.957zm183.51 14.496 1.0394-1.1659v-13.227z" fill="#a00f00"/>
   <path d="m396.79-20.438v13.227l-1.0394 1.1659zm0 13.227v-13.227l87.729 7.8065z" fill="#c41111"/>
   <path d="m216.07 40.364-6.742 7.5624v-85.792z" fill="#bdbdbd"/>
  </g>
  <path d="m122.96-22.85v-13.227m0 2e-6v13.227" fill="none" stroke="#000" stroke-linecap="round"/>
  <g fill-opacity=".4">
   <path d="m212.24-7.3143 183.51 1.2691v-13.227z" fill="#a00f00"/>
   <path d="m395.75-6.0452 1.0394-1.1659 87.729-5.42z" fill="#c41111"/>
   <path d="m395.75-19.272v13.227l1.0394-14.392z" fill="#a00f00"/>
   <path d="m396.79-20.438-1.0394 14.392v-13.227zm0 0-1.0394 1.1659 88.769 6.6406z" fill="#c41111"/>
  </g>
  <path d="m-243.76-56.31v119.39m0 0 122.34 0.84607" fill="none" stroke="#000" stroke-linecap="round"/>
  <path d="m392.83 49.195-183.51-1.2691 190.25-6.2933z" fill="#bdbdbd" fill-opacity=".4"/>
  <path d="m-31.85-39.534v85.792m0 0 152.92 1.0576m274.68-66.588v13.227m0 3e-7v-13.227m0 13.227 88.769-6.5859" fill="none" stroke="#000" stroke-linecap="round"/>
  <path d="m395.75-19.272v13.227l88.769-6.5859z" fill="#c41111" fill-opacity=".4"/>
  <path d="m395.75-19.272 88.769 6.6406" fill="none" stroke="#000" stroke-linecap="round"/>
  <path d="m695.18-34.506 6.742-7.5624-214.09-1.4806zm0 85.792 6.742-7.5624v-85.792z" fill="#bdbdbd" fill-opacity=".4"/>
  <path d="m833.87 95.869-30.585-0.21152m0-183.36v183.36m0 0-2.4016 2.6938" fill="none" stroke="#000" stroke-linecap="round"/>
  <path d="m209.32-37.866 183.51 1.2691-176.77-8.8315z" fill="#bdbdbd" fill-opacity=".4"/>
  <path d="m833.87-87.49v183.36m0 0-2.4016 2.6938m-1166.9-169.43v149.95m0 0 4.4125 0.03052m0-149.95v149.95m299.15-118.65 152.92 1.0576m-242.49-16.988v119.39" fill="none" stroke="#000" stroke-linecap="round"/>
  <path d="m-243.76 63.084 122.34 0.84607v-119.39zm1077.6 32.785-30.585-0.21152v-183.36zm-1077.6-152.18v119.39l122.34-118.55zm211.91 16.776v85.792l152.92-84.734z" fill="#bdbdbd" fill-opacity=".4"/>
  <path d="m-243.76-56.31 122.34 0.84607" fill="none" stroke="#000" stroke-linecap="round"/>
  <path d="m392.83-36.597v85.792l6.742-93.354zm-728.25 115.68 4.4125 0.03052v-149.95zm303.57-32.827 152.92 1.0576v-85.792z" fill="#bdbdbd" fill-opacity=".4"/>
  <path d="m121.07-38.476v85.792" fill="none" stroke="#000" stroke-linecap="round"/>
  <path d="m800.89 98.351 2.4016-2.6938 30.585 0.21152zm-313.06-56.108-6.742 7.5624v-85.792zm-823.24-113.11v149.95l4.4125-149.92zm1169.3-16.621v183.36l-30.585-183.57z" fill="#bdbdbd" fill-opacity=".4"/>
  <path d="m952.71 55.77-30.585-0.21152m0-101.52v101.52m0 0-2.4016 2.6938m32.986-104v101.52m0 0-2.4016 2.6938m-1285.7-129.33 4.4125 0.03052m540.33 32.972v85.792m0 0 183.51 1.2691m441.04-136.68-30.585-0.21152m0 0-2.4016 2.6938" fill="none" stroke="#000" stroke-linecap="round"/>
  <path d="m952.71 55.77-30.585-0.21152v-101.52z" fill="#bdbdbd" fill-opacity=".4"/>
  <path d="m718.25 4.7452 50.008 0.34584" fill="none" stroke="#000" stroke-linecap="round"/>
  <path d="m831.47 98.563 2.4016-2.6938v-183.36z" fill="#bdbdbd" fill-opacity=".4"/>
  <path d="m833.87-87.49-2.4016 2.6938" fill="none" stroke="#000" stroke-linecap="round"/>
  <path d="m695.18 51.286-214.09-1.4806 220.84-6.0818zm257.53-97.033v101.52l-30.585-101.73zm-149.42-41.954v183.36l-2.4016-180.66z" fill="#bdbdbd" fill-opacity=".4"/>
  <path d="m952.71-45.747-30.585-0.21152m0 0-2.4016 2.6938" fill="none" stroke="#000" stroke-linecap="round"/>
  <path d="m831.47 98.563-30.585-0.21152 32.986-2.4823z" fill="#bdbdbd" fill-opacity=".4"/>
  <path d="m768.77-4.3971-1.0183 1.1422 29.926 8.5494z"/>
  <path d="m481.08-35.987 214.09 1.4806-207.35-9.043z" fill="#bdbdbd" fill-opacity=".4"/>
  <path d="m209.32-37.866 183.51 1.2691" fill="none" stroke="#000" stroke-linecap="round"/>
  <path d="m919.72 58.252 2.4016-2.6938 30.585 0.21152z" fill="#bdbdbd" fill-opacity=".4"/>
  <path d="m952.71-45.747-2.4016 2.6938" fill="none" stroke="#000" stroke-linecap="round"/>
  <path d="m767.44 9.4211 0.82379 6.6921 29.416-10.819z"/>
  <path d="m803.29 95.657-2.4016 2.6938v-183.36zm-593.97-133.52v85.792l183.51-84.523z" fill="#bdbdbd" fill-opacity=".4"/>
  <path d="m837.09 5.5671 50.008 0.34584" fill="none" stroke="#000" stroke-linecap="round"/>
  <path d="m767.75-3.2549-0.31466 12.676 30.24-4.1266z"/>
  <path d="m831.47-84.796 2.4016-2.6938-30.585-0.21152zm-622.15 132.72 183.51 1.2691v-85.792zm740.98 10.538 2.4016-2.6938v-101.52zm-28.183-104.42v101.52l-2.4016-98.824z" fill="#bdbdbd" fill-opacity=".4"/>
  <path d="m800.89-85.007v183.36m0 0 30.585 0.21152m-438.64-135.16v85.792" fill="none" stroke="#000" stroke-linecap="round"/>
  <path d="m695.18-34.506v85.792l6.742-93.354z" fill="#bdbdbd" fill-opacity=".4"/>
  <path d="m887.6-3.5752-1.0182 1.1422 29.926 8.5494z"/>
  <path d="m831.47-84.796v183.36" fill="none" stroke="#000" stroke-linecap="round"/>
  <path d="m831.47-84.796v183.36l2.4016-186.05zm118.83 41.742 2.4016-2.6938-30.585-0.21152z" fill="#bdbdbd" fill-opacity=".4"/>
  <path d="m886.27 10.243 0.82379 6.6921 29.416-10.819z"/>
  <path d="m950.31 58.464-30.585-0.21152 32.986-2.4823zm-28.183-2.9053-2.4016 2.6938v-101.52z" fill="#bdbdbd" fill-opacity=".4"/>
  <path d="m886.58-2.4331-0.31466 12.676 30.24-4.1266z"/>
  <path d="m800.89-85.007 30.585 0.21152-28.183-2.9053zm0 183.36 30.585 0.21152v-183.36z" fill="#bdbdbd" fill-opacity=".4"/>
  <path d="m481.08-35.987v85.792m0 0 214.09 1.4806" fill="none" stroke="#000" stroke-linecap="round"/>
  <path d="m950.31-43.053v101.52l2.4016-104.21zm-149.42-41.954v183.36l30.585-183.15zm118.83 41.742 30.585 0.21152-28.183-2.9053z" fill="#bdbdbd" fill-opacity=".4"/>
  <path d="m919.72-43.265v101.52m0 0 30.585 0.21152m-469.22-94.45 214.09 1.4806m255.13-8.5475v101.52m-149.42-143.47 30.585 0.21152" fill="none" stroke="#000" stroke-linecap="round"/>
  <path d="m919.72 58.252 30.585 0.21152v-101.52zm-438.64-94.239v85.792l214.09-84.311zm438.64-7.2784v101.52l30.585-101.31zm-438.64 93.07 214.09 1.4806v-85.792z" fill="#bdbdbd" fill-opacity=".4"/>
  <path d="m919.72-43.265 30.585 0.21152m-255.13 8.5475v85.792" fill="none" stroke="#000" stroke-linecap="round"/>
 </g>
</svg>
