<?xml version="1.0" encoding="UTF-8"?>
<svg width="450mm" height="150mm" version="1.1" viewBox="0 0 450 150" xmlns="http://www.w3.org/2000/svg" xmlns:cc="http://creativecommons.org/ns#" xmlns:dc="http://purl.org/dc/elements/1.1/" xmlns:rdf="http://www.w3.org/1999/02/22-rdf-syntax-ns#">
 <metadata>
  <rdf:RDF>
   <cc:Work rdf:about="">
    <dc:format>image/svg+xml</dc:format>
    <dc:type rdf:resource="http://purl.org/dc/dcmitype/StillImage"/>
    <dc:title/>
   </cc:Work>
  </rdf:RDF>
 </metadata>
 <g transform="translate(135.53 -71.137)">
  <g stroke-width=".26458">
   <path d="m-117.62 175.03-1.5882-0.011m0-69.538v69.538m0 0-5.4647 6.1296m7.0528-75.656v69.538m0 0-5.4647 6.1296" fill="none" stroke="#000" stroke-linecap="round"/>
   <path d="m-117.62 175.03-1.5882-0.011v-69.538zm0-69.538v69.538l-1.5882-69.549z" fill="#bdbdbd" fill-opacity=".4"/>
   <path d="m-117.62 105.49-1.5882-0.011m0 0-5.4647 6.1296m7.0528-6.1186-5.4647 6.1296m102.05 59.064-66.051-0.45679m0-58.538v58.538m0 0-4.6003 5.16" fill="none" stroke="#000" stroke-linecap="round"/>
   <path d="m-21.027 170.68-66.051-0.4568v-58.538z" fill="#bdbdbd" fill-opacity=".4"/>
   <path d="m-21.027 112.15v58.538m0 0-4.6003 5.16m4.6003-63.698-66.051-0.45679m0 0-4.6003 5.16" fill="none" stroke="#000" stroke-linecap="round"/>
   <path d="m-21.027 112.15v58.538l-66.051-58.995z" fill="#bdbdbd" fill-opacity=".4"/>
   <path d="m-21.027 112.15-4.6003 5.16m101.98 49.04-66.051-0.45679m0-47.539v47.539m0 0-3.7359 4.1904" fill="none" stroke="#000" stroke-linecap="round"/>
   <path d="m-124.67 181.15 5.4647-6.1296 1.5882 0.011zm201.02-14.801-66.051-0.45679v-47.539zm-199.44 14.812 5.4647-6.1296v-69.538z" fill="#bdbdbd" fill-opacity=".4"/>
   <path d="m272.85 177.73-66.051-0.4568m0-69.538v69.538m0 0-5.4647 6.1296m-124.98-64.594-66.051-0.4568m0 0-3.7359 4.1904" fill="none" stroke="#000" stroke-linecap="round"/>
   <path d="m-119.2 105.48v69.538l-5.4647-63.408z" fill="#bdbdbd" fill-opacity=".4"/>
   <path d="m76.355 118.81v47.539m0 0-3.7359 4.1904" fill="none" stroke="#000" stroke-linecap="round"/>
   <path d="m76.355 118.81v47.539l-66.051-47.996zm196.49 58.922-66.051-0.4568v-69.538zm-395.93-66.108 5.4647-6.1296-1.5882-0.011zm31.402 63.767 4.6003-5.16 66.051 0.4568z" fill="#bdbdbd" fill-opacity=".4"/>
   <path d="m174.17 167.02-66.051-0.45679m0-47.539v47.539m0 0-3.7359 4.1904m168.47-62.565v69.538m0 0-5.4647 6.1296" fill="none" stroke="#000" stroke-linecap="round"/>
   <path d="m-87.078 111.69v58.538l-4.6003-53.378z" fill="#bdbdbd" fill-opacity=".4"/>
   <path d="m76.355 118.81-3.7359 4.1904m200.23-14.807-66.051-0.4568m0 0-5.4647 6.1296" fill="none" stroke="#000" stroke-linecap="round"/>
   <path d="m174.17 167.02-66.051-0.45679v-47.539zm98.679-58.831v69.538l-66.051-69.994z" fill="#bdbdbd" fill-opacity=".4"/>
   <path d="m305.41 177.95-1.5882-0.011m0-69.538v69.538m0 0-5.4647 6.1296m7.0529-75.656v69.538m0 0-5.4647 6.1296m-125.77-64.6-66.051-0.45679m0 0-3.7359 4.1904" fill="none" stroke="#000" stroke-linecap="round"/>
   <path d="m-25.627 175.84 4.6003-5.16v-58.538z" fill="#bdbdbd" fill-opacity=".4"/>
   <path d="m174.17 119.48v47.539m0 0-3.7359 4.1904" fill="none" stroke="#000" stroke-linecap="round"/>
   <path d="m305.41 177.95-1.5882-0.011v-69.538z" fill="#bdbdbd" fill-opacity=".4"/>
   <path d="m-120.07 130.24-1.5882-0.011m0-4.7607v4.7607m0 0-0.37412 0.41964m1.1682-5.1748v4.7606m0 0-0.37412 0.41964m0.37412-0.41964 31.562 0.46229m-30.768-5.2174v4.7606m0 0-0.37412 0.41964" fill="none" stroke="#000" stroke-linecap="round"/>
   <path d="m-120.07 130.24-1.5882-0.011v-4.7607zm0-4.7606v4.7606l-1.5882-4.7716z" fill="#a00f00" fill-opacity=".4"/>
   <path d="m-120.07 125.48-1.5882-0.011m0 0-0.37412 0.41965m1.1682-0.41415-0.37412 0.41964m0.37412-0.41964 31.562 5.2229m-30.768-5.2174-0.37412 0.41964" fill="none" stroke="#000" stroke-linecap="round"/>
   <path d="m174.17 119.48v47.539l-66.051-47.996zm-199.8-2.1774 4.6003-5.16-66.051-0.45679z" fill="#bdbdbd" fill-opacity=".4"/>
   <path d="m272.85 108.19-5.4647 6.1296" fill="none" stroke="#000" stroke-linecap="round"/>
  </g>
  <g fill-opacity=".4" stroke-width=".26458">
   <path d="m-122.03 130.65 0.37412-0.41964 1.5882 0.011z" fill="#a00f00"/>
   <path d="m-120.86 125.47v4.7606l-0.37411 0.41964z" fill="#c41111"/>
   <path d="m-120.44 130.66 0.37412-0.41964v-4.7606zm-1.2141-5.1913v4.7607l-0.37412-4.341z" fill="#a00f00"/>
   <path d="m-120.86 130.23v-4.7606l31.562 5.2229z" fill="#c41111"/>
   <path d="m305.41 108.42v69.538l-1.5882-69.549z" fill="#bdbdbd"/>
   <path d="m-120.44 125.9 0.37412-0.41964-1.5882-0.011zm0 4.7606-1.5882-0.011 1.9623-0.40866zm-1.2141-0.43062-0.37412 0.41964v-4.7607z" fill="#a00f00"/>
   <path d="m-121.24 130.65 0.37411-0.41964 31.562 0.46229z" fill="#c41111"/>
   <path d="m-120.86 125.47-0.37411 5.1803v-4.7606z" fill="#c41111"/>
   <path d="m-120.44 125.9v4.7606l0.37412-5.1803z" fill="#a00f00"/>
   <path d="m-120.86 125.47-0.37411 0.41964 31.936 4.8033z" fill="#c41111"/>
   <path d="m-122.03 125.89 1.5882 0.011-1.2141-0.43063z" fill="#a00f00"/>
  </g>
  <path d="m174.17 119.48-3.7359 4.1904m134.97-15.258-1.5882-0.011m0 0-5.4647 6.1296m7.0529-6.1186-5.4647 6.1296" fill="none" stroke="#000" stroke-linecap="round" stroke-width=".26458"/>
  <g fill-opacity=".4" stroke-width=".26458">
   <path d="m6.5686 170.08 3.7359-4.1904 66.051 0.45679z" fill="#bdbdbd"/>
   <path d="m-122.03 130.65 1.5882 0.011v-4.7606z" fill="#a00f00"/>
   <path d="m-121.24 125.89v4.7606l31.936 0.0427z" fill="#c41111"/>
   <path d="m-122.03 125.89v4.7607l1.5882-4.7497z" fill="#a00f00"/>
  </g>
  <path d="m-121.24 125.89 31.936 4.8033m-32.73-4.8088 1.5882 0.011" fill="none" stroke="#000" stroke-linecap="round" stroke-width=".26458"/>
  <g fill="#bdbdbd" fill-opacity=".4" stroke-width=".26458">
   <path d="m10.304 118.35v47.539l-3.7359-43.348z"/>
   <path d="m72.619 170.54 3.7359-4.1904v-47.539z"/>
   <path d="m72.619 123 3.7359-4.1904-66.051-0.4568z"/>
   <path d="m-123.08 181.16-1.5882-0.011 7.0528-6.1186z"/>
   <path d="m104.38 170.76 3.7359-4.1904 66.051 0.45679zm-223.59 4.2613-5.4647 6.1296v-69.538zm227.32-55.991v47.539l-3.7359-43.348z"/>
   <path d="m-87.078 170.23-4.6003 5.16v-58.538z"/>
   <path d="m201.33 183.4 5.4647-6.1296 66.051 0.4568zm-324.41-71.781v69.538l5.4647-75.667zm97.453 64.224-66.051-0.45679 70.651-4.7032z"/>
   <path d="m206.8 107.73v69.538l-5.4647-63.408z"/>
   <path d="m170.43 123.67 3.7359-4.1904-66.051-0.45679zm-262.11-6.8247 66.051 0.4568-61.451-5.6168z"/>
   <path d="m10.304 165.89-3.7359 4.1904v-47.539z"/>
  </g>
  <g stroke-width=".26458">
   <path d="m73.774 164.55-66.051-0.45679m0-4.7607v4.7607m0 0-0.37412 0.41964" fill="none" stroke="#000" stroke-linecap="round"/>
   <path d="m73.774 159.79-66.051-0.4568m0 0-0.37412 0.41964" fill="none" stroke="#000" stroke-linecap="round"/>
   <path d="m267.38 183.86 5.4647-6.1296v-69.538z" fill="#bdbdbd" fill-opacity=".4"/>
   <path d="m-25.627 117.31v58.538l4.6003-63.698z" fill="#bdbdbd" fill-opacity=".4"/>
   <path d="m270.65 147.93-66.051-0.45679m0-4.7606v4.7606m0 0-0.37412 0.41964" fill="none" stroke="#000" stroke-linecap="round"/>
   <path d="m298.35 184.07 5.4647-6.1296 1.5882 0.011z" fill="#bdbdbd" fill-opacity=".4"/>
   <path d="m270.65 143.17-66.051-0.45679m0 0-0.37412 0.41964" fill="none" stroke="#000" stroke-linecap="round"/>
  </g>
  <g fill-opacity=".4" stroke-width=".26458">
   <path d="m73.774 164.55-66.051-0.45679v-4.7607zm-66.051-5.2174v4.7607l-0.37412-4.341z" fill="#a00f00"/>
   <path d="m72.619 170.54-66.051-0.45679 69.787-3.7336z" fill="#bdbdbd"/>
   <path d="m270.65 147.93-66.051-0.45679v-4.7606zm-66.051-5.2174v4.7606l-0.37412-4.341z" fill="#a00f00"/>
   <path d="m267.38 114.32 5.4647-6.1296-66.051-0.4568zm32.558 69.763 5.4647-6.1296v-69.538z" fill="#bdbdbd"/>
  </g>
  <path d="m-24.845 147.72-66.051-0.4568m0-4.7606v4.7606m0 0-0.37412 0.41964" fill="none" stroke="#000" stroke-linecap="round" stroke-width=".26458"/>
  <g fill-opacity=".4" stroke-width=".26458">
   <path d="m204.23 147.89 0.37412-0.41964 66.051 0.45679zm0.37412-0.41964-0.37412 0.41964v-4.7606z" fill="#a00f00"/>
   <path d="m6.5686 122.54 66.051 0.45679-62.315-4.6472z" fill="#bdbdbd"/>
   <path d="m270.65 143.17v4.7606l-66.051-5.2174z" fill="#a00f00"/>
  </g>
  <g stroke-width=".26458">
   <path d="m7.3493 159.76v4.7607m0 0 66.051 0.45679" fill="none" stroke="#000" stroke-linecap="round"/>
   <path d="m303.82 108.4v69.538l-5.4647-63.408z" fill="#bdbdbd" fill-opacity=".4"/>
   <path d="m73.774 159.79v4.7606m0 0-0.37412 0.41964m0.37412-0.41964 31.577-1.9508m-31.577-2.8098v4.7606m0 0-0.37412 0.41964m-66.051-5.2174 66.051 0.4568" fill="none" stroke="#000" stroke-linecap="round"/>
   <path d="m7.3493 159.76 66.051 0.4568-65.677-0.87644zm66.051 0.4568 0.37412-0.41964-66.051-0.4568z" fill="#a00f00" fill-opacity=".4"/>
   <path d="m73.774 159.79-0.37412 0.41964m0.37412-0.41964 31.577 2.8098m-31.577-2.8098-0.37412 0.41964m130.83-17.081v4.7606m0 0 66.051 0.45679" fill="none" stroke="#000" stroke-linecap="round"/>
   <path d="m-24.845 147.72-66.051-0.4568v-4.7606zm-66.051-5.2174v4.7606l-0.37412-4.341z" fill="#a00f00" fill-opacity=".4"/>
   <path d="m270.65 143.17v4.7606m0 0-0.37412 0.41964m0.37413-5.1803v4.7606m0 0-0.37412 0.41964m0.37412-0.41964 31.577-1.9508m-98.002-2.847 66.051 0.45679" fill="none" stroke="#000" stroke-linecap="round"/>
   <path d="m204.23 143.13 66.051 0.45679-65.677-0.87643zm66.051 0.45679 0.37412-0.41964-66.051-0.45679z" fill="#a00f00" fill-opacity=".4"/>
   <path d="m72.619 123v47.539l3.7359-51.729z" fill="#bdbdbd" fill-opacity=".4"/>
   <path d="m270.65 143.17-0.37412 0.41964m0.37413-0.41964-0.37412 0.41964m0.37412-0.41964 31.577 2.8098" fill="none" stroke="#000" stroke-linecap="round"/>
  </g>
  <g fill-opacity=".4" stroke-width=".26458">
   <path d="m73.4 164.97-66.051-0.45679 66.425 0.03715zm-66.051-5.2174v4.7607l66.051-4.3039zm66.051 5.2174 0.37412-0.41964v-4.7606z" fill="#a00f00"/>
   <path d="m73.774 159.79v4.7606l-0.37412 0.41964zm0 4.7606v-4.7606l31.577 2.8098z" fill="#c41111"/>
   <path d="m299.94 114.54 5.4647-6.1296-1.5882-0.011z" fill="#bdbdbd"/>
   <path d="m-91.27 147.68 0.37412-0.41964 66.051 0.4568zm0.37412-0.41964-0.37412 0.41964v-4.7606z" fill="#a00f00"/>
   <path d="m270.28 148.35-66.051-0.45679 66.425 0.0371zm-66.051-5.2174v4.7606l66.051-4.3039zm66.051 5.2174 0.37412-0.41964v-4.7606z" fill="#a00f00"/>
   <path d="m270.65 143.17v4.7606l-0.37412 0.41964z" fill="#c41111"/>
   <path d="m-24.845 142.96v4.7607l-66.051-5.2174z" fill="#a00f00"/>
   <path d="m270.65 147.93v-4.7606l31.577 2.8098z" fill="#c41111"/>
   <path d="m7.3493 164.52 66.051 0.45679v-4.7606z" fill="#a00f00"/>
   <path d="m73.4 164.97 0.37412-0.41964 31.577-1.9508z" fill="#c41111"/>
   <path d="m73.4 160.21v4.7606l0.37412-5.1803z" fill="#a00f00"/>
   <path d="m73.774 159.79-0.37412 5.1803v-4.7606zm0 0-0.37412 0.41964 31.951 2.3902z" fill="#c41111"/>
  </g>
  <g stroke-width=".26458">
   <path d="m-91.27 142.92v4.7606m0 0 66.051 0.4568" fill="none" stroke="#000" stroke-linecap="round"/>
   <path d="m204.23 147.89 66.051 0.45679v-4.7606z" fill="#a00f00" fill-opacity=".4"/>
   <path d="m-24.845 142.96v4.7607m0 0-0.37412 0.41964m0.37412-5.1803v4.7607m0 0-0.37412 0.41964m0.37412-0.41964 31.897-2.243m-98.322-2.5548 66.051 0.45679" fill="none" stroke="#000" stroke-linecap="round"/>
  </g>
  <g fill-opacity=".4" stroke-width=".26458">
   <path d="m270.28 148.35 0.37412-0.41964 31.577-1.9508z" fill="#c41111"/>
   <path d="m-91.27 142.92 66.051 0.45679-65.677-0.87643zm361.55 0.66732v4.7606l0.37412-5.1803z" fill="#a00f00"/>
   <path d="m270.65 143.17-0.37412 5.1803v-4.7606z" fill="#c41111"/>
   <path d="m-25.219 143.38 0.37412-0.41964-66.051-0.45679z" fill="#a00f00"/>
   <path d="m170.43 171.21-66.051-0.45679 69.787-3.7336z" fill="#bdbdbd"/>
   <path d="m270.65 143.17-0.37412 0.41964 31.951 2.3902z" fill="#c41111"/>
  </g>
  <g stroke-width=".26458">
   <path d="m-24.845 142.96-0.37412 0.41964m0.37412-0.41964-0.37412 0.41964m0.37412-0.41964 31.897 2.5177" fill="none" stroke="#000" stroke-linecap="round"/>
   <path d="m-24.845 147.72v-4.7607l31.897 2.5177z" fill="#c41111" fill-opacity=".4"/>
   <path d="m73.4 164.97v-4.7606m0 4.7606 31.951-2.3705m-31.951-2.3902v4.7606" fill="none" stroke="#000" stroke-linecap="round"/>
   <path d="m73.4 160.21v4.7606l31.951-2.3705z" fill="#c41111" fill-opacity=".4"/>
   <path d="m-25.219 148.14 32.271-2.6626m-32.271-2.0981 32.271 2.0981m66.348 14.737 31.951 2.3902" fill="none" stroke="#000" stroke-linecap="round"/>
   <path d="m-25.219 148.14-66.051-0.4568 66.425 0.0372z" fill="#a00f00" fill-opacity=".4"/>
   <path d="m270.28 143.59v4.7606m1e-5 0v-4.7606m0 4.7606 31.951-2.3705" fill="none" stroke="#000" stroke-linecap="round"/>
   <path d="m-91.27 142.92v4.7606l66.051-4.3039zm66.051 5.2174 0.37412-0.41964v-4.7607z" fill="#a00f00" fill-opacity=".4"/>
   <path d="m-24.845 142.96v4.7607l-0.37412 0.41964zm295.12 0.63017v4.7606l31.951-2.3705z" fill="#c41111" fill-opacity=".4"/>
   <path d="m270.28 143.59 31.951 2.3902" fill="none" stroke="#000" stroke-linecap="round"/>
   <path d="m-25.219 148.14 0.37412-0.41964 31.897-2.243zm0.37412-5.1803-0.37412 0.41964 32.271 2.0981z" fill="#c41111" fill-opacity=".4"/>
   <path d="m-91.678 116.85v58.538m0 0 66.051 0.45679" fill="none" stroke="#000" stroke-linecap="round"/>
  </g>
  <g fill-opacity=".4" stroke-width=".26458">
   <path d="m104.38 123.22 66.051 0.45679-62.315-4.6472z" fill="#bdbdbd"/>
   <path d="m-91.27 147.68 66.051 0.4568v-4.7607zm66.051-4.3039v4.7607l0.37412-5.1803z" fill="#a00f00"/>
   <path d="m-24.845 142.96-0.37412 5.1803v-4.7607zm-0.37412 0.41964v4.7607l32.271-2.6626z" fill="#c41111"/>
  </g>
  <g stroke-width=".26458">
   <path d="m-25.219 143.38v4.7607m0 0v-4.7607m-99.449-31.77v69.538m0 0 1.5882 0.011" fill="none" stroke="#000" stroke-linecap="round"/>
   <path d="m170.43 123.67v47.539l3.7359-51.729z" fill="#bdbdbd" fill-opacity=".4"/>
   <path d="m-123.08 111.62v69.538m129.65-58.617v47.539m0 0 66.051 0.45679" fill="none" stroke="#000" stroke-linecap="round"/>
   <path d="m-124.67 181.15 1.5882 0.011v-69.538z" fill="#bdbdbd" fill-opacity=".4"/>
   <path d="m-25.627 117.31v58.538" fill="none" stroke="#000" stroke-linecap="round"/>
   <path d="m-91.678 175.39 66.051 0.45679v-58.538zm0-58.538v58.538l66.051-58.081z" fill="#bdbdbd" fill-opacity=".4"/>
   <path d="m-91.678 116.85 66.051 0.4568" fill="none" stroke="#000" stroke-linecap="round"/>
   <path d="m-124.67 111.61v69.538l1.5882-69.527z" fill="#bdbdbd" fill-opacity=".4"/>
   <path d="m6.5686 122.54 66.051 0.45679" fill="none" stroke="#000" stroke-linecap="round"/>
   <path d="m206.8 177.27-5.4647 6.1296v-69.538zm-200.23-54.731v47.539l66.051-47.082zm0 47.539 66.051 0.45679v-47.539z" fill="#bdbdbd" fill-opacity=".4"/>
   <path d="m72.619 123v47.539" fill="none" stroke="#000" stroke-linecap="round"/>
   <path d="m267.38 183.86-66.051-0.45679 71.515-5.6728z" fill="#bdbdbd" fill-opacity=".4"/>
   <path d="m-124.67 111.61 1.5882 0.011m227.46 11.597v47.539m0 0 66.051 0.45679" fill="none" stroke="#000" stroke-linecap="round"/>
   <path d="m299.94 184.08-1.5882-0.011 7.0529-6.1186zm-98.609-70.22 66.051 0.45679-60.586-6.5864zm66.051 0.45679v69.538l5.4647-75.667zm36.434 63.622-5.4647 6.1296v-69.538z" fill="#bdbdbd" fill-opacity=".4"/>
   <path d="m104.38 123.22 66.051 0.45679" fill="none" stroke="#000" stroke-linecap="round"/>
   <path d="m170.43 123.67v47.539" fill="none" stroke="#000" stroke-linecap="round"/>
   <path d="m299.94 114.54v69.538l5.4647-75.667zm-1.5882-0.011 1.5882 0.011 3.8765-6.1406z" fill="#bdbdbd" fill-opacity=".4"/>
   <path d="m201.33 113.86v69.538m0 0 66.051 0.45679m0-69.538v69.538" fill="none" stroke="#000" stroke-linecap="round"/>
   <path d="m201.33 183.4 66.051 0.45679v-69.538zm0-69.538v69.538l66.051-69.081z" fill="#bdbdbd" fill-opacity=".4"/>
   <path d="m201.33 113.86 66.051 0.45679m30.97 0.21418v69.538m0 0 1.5882 0.011m0-69.538v69.538" fill="none" stroke="#000" stroke-linecap="round"/>
   <path d="m298.35 184.07 1.5882 0.011v-69.538zm0-69.538v69.538l1.5882-69.527z" fill="#bdbdbd" fill-opacity=".4"/>
   <path d="m298.35 114.53 1.5882 0.011" fill="none" stroke="#000" stroke-linecap="round"/>
   <path d="m104.38 123.22v47.539l66.051-47.082zm0 47.539 66.051 0.45679v-47.539z" fill="#bdbdbd" fill-opacity=".4"/>
  </g>
  <g fill="none" stroke="#000" stroke-width=".26458px">
   <path d="m-53.865 111.31v-15.405h99.296v22.788"/>
   <path d="m45.432 95.909h193.54v11.741"/>
   <path d="m142.03 96.029v23.157"/>
  </g>
  <path d="m237.66 103.29 1.3145 4.357 1.3036-4.3322z" stroke="#000" stroke-width=".26458px"/>
  <path d="m170.43 171.21 3.7359-4.1904v-47.539zm-295.1-59.604 1.5882 0.011 3.8765-6.1406z" fill="#bdbdbd" fill-opacity=".4" stroke-width=".26458"/>
  <path d="m108.12 166.56-3.7359 4.1904v-47.539z" fill="#bdbdbd" fill-opacity=".4" stroke-width=".26458"/>
 </g>
</svg>
